<svg width="16.000000" height="16.000000" viewBox="0 0 16 16" fill="none" xmlns="http://www.w3.org/2000/svg" xmlns:xlink="http://www.w3.org/1999/xlink">
	<desc>
			Created with Pixso.
	</desc>
	<defs/>
	<path id="Vector" d="M7.63431 9.01147C7.504 8.90295 7.42859 8.74292 7.42859 8.57141L7.42859 3.42859C7.42859 3.11438 7.6846 2.85718 8.00003 2.85718C8.31546 2.85718 8.57144 3.11438 8.57144 3.42859L8.57144 8.30286L11.7943 10.9886C12.0366 11.1943 12.0697 11.5543 11.8675 11.7943C11.6657 12.0343 11.3051 12.0686 11.0629 11.8687L7.63431 9.01147Z" fill="#000000" fill-opacity="1.000000" fill-rule="nonzero"/>
	<path id="Vector" d="M8 0C3.58173 0 0 3.58289 0 8C0 12.4171 3.58173 16 8 16C12.4183 16 16 12.4171 16 8C16 3.58289 12.4183 0 8 0ZM1.14285 8C1.14285 4.21143 4.21313 1.14282 8 1.14282C11.7869 1.14282 14.8571 4.21143 14.8571 8C14.8571 11.7886 11.7869 14.8572 8 14.8572C4.21313 14.8572 1.14285 11.7886 1.14285 8Z" fill="#000000" fill-opacity="1.000000" fill-rule="evenodd"/>
</svg>
