<svg width="16.000000" height="15.546631" viewBox="0 0 16 15.5466" fill="none" xmlns="http://www.w3.org/2000/svg" xmlns:xlink="http://www.w3.org/1999/xlink">
	<desc>
			Created with Pixso.
	</desc>
	<defs/>
	<path id="Vector" d="M11.6499 14.4144C12.2404 14.4539 12.7308 14.2961 13.132 13.9078L14.8277 12.259C14.8382 12.2478 14.8416 12.2422 14.8422 12.2366L12.4181 9.87866C12.4123 9.87866 12.4025 9.88428 12.3921 9.89551L10.6963 11.5387C10.5875 11.6456 10.4393 11.7075 10.2858 11.7075L10.287 11.1448C10.2858 11.7075 10.2841 11.7075 10.2841 11.7075L10.2824 11.7075L10.2789 11.7075L10.2713 11.7075L10.2569 11.7075C10.2465 11.7075 10.2355 11.7019 10.2239 11.7019C10.2007 11.7019 10.1747 11.6963 10.1457 11.6907C10.0884 11.6851 10.0195 11.6682 9.93788 11.6401C9.77461 11.5895 9.55692 11.4938 9.2715 11.3306C8.70238 10.9985 7.83917 10.3739 6.57531 9.16394C5.30913 7.95972 4.65894 7.1156 4.32372 6.54724C4.15525 6.26587 4.06207 6.04639 4.0117 5.87756C3.98623 5.79321 3.97174 5.72559 3.96364 5.6637C3.95959 5.63562 3.95784 5.61316 3.95668 5.58496C3.9561 5.57373 3.95551 5.5625 3.95551 5.55676C3.95551 5.55115 3.95612 5.54553 3.95612 5.53992L3.95612 5.5343L3.95612 5.52869C3.95612 5.52869 3.95667 5.52307 4.53447 5.55115L3.95668 5.52307C3.96363 5.38794 4.02385 5.25293 4.12516 5.15735L5.8215 3.5083C5.83192 3.49707 5.83481 3.48596 5.83539 3.48035L3.41129 1.12231C3.40608 1.12793 3.39624 1.12793 3.38581 1.13928L1.68948 2.78809C1.2871 3.17627 1.12904 3.65466 1.16204 4.22302C1.19562 4.81396 1.4359 5.50049 1.84001 6.24341C2.64824 7.72339 4.02327 9.26526 5.23329 10.447C6.43636 11.6119 8.0308 12.9569 9.56214 13.7504C10.3287 14.1443 11.0391 14.3806 11.6499 14.4144ZM5.1835 5.72009L6.64015 4.30188C7.08479 3.86865 7.13051 3.14819 6.6604 2.69238L4.22474 0.323242C3.75405 -0.132568 3.01123 -0.0875244 2.56717 0.34021L0.870831 1.98901C0.199821 2.64172 -0.04216 3.44653 0.00589371 4.28503C0.0522118 5.10657 0.372955 5.9563 0.817013 6.76672C1.70571 8.39868 3.17567 10.0361 4.41464 11.2405C5.64608 12.4391 7.33662 13.8687 9.01849 14.7408C9.85855 15.1742 10.7374 15.4893 11.5815 15.5399C12.4465 15.5906 13.2785 15.3599 13.9506 14.707L15.6464 13.0581C16.091 12.6248 16.1368 11.9045 15.6667 11.4431L13.231 9.07959C12.7603 8.61816 12.0181 8.66321 11.5734 9.09656L10.1283 10.5034C10.0577 10.4696 9.96972 10.4246 9.86261 10.3627C9.40118 10.0925 8.61148 9.5354 7.38699 8.36487C6.16539 7.19446 5.59225 6.43469 5.32651 5.9845C5.26109 5.87756 5.21534 5.7876 5.1835 5.72009Z" fill="#000000" fill-opacity="1.000000" fill-rule="evenodd"/>
</svg>
