<svg width="12.329651" height="15.546631" viewBox="0 0 12.3297 15.5466" fill="none" xmlns="http://www.w3.org/2000/svg" xmlns:xlink="http://www.w3.org/1999/xlink">
	<desc>
			Created with Pixso.
	</desc>
	<defs/>
	<path id="Vector" d="M6.16449 3.33142C4.61768 3.33142 3.3623 4.5752 3.3623 6.10754C3.3623 7.64001 4.61768 8.88379 6.16449 8.88379C7.7113 8.88379 8.96671 7.64001 8.96671 6.10754C8.96671 4.5752 7.7113 3.33142 6.16449 3.33142ZM4.48318 6.10754C4.48318 5.18591 5.23416 4.44189 6.16449 4.44189C7.09482 4.44189 7.84583 5.18591 7.84583 6.10754C7.84583 7.0293 7.09482 7.77332 6.16449 7.77332C5.23416 7.77332 4.48318 7.0293 4.48318 6.10754Z" fill="#000000" fill-opacity="1.000000" fill-rule="evenodd"/>
	<path id="Vector" d="M5.81735 15.4301C5.81735 15.4301 5.81735 15.4301 6.16483 14.9913L5.81735 15.4301C6.0191 15.5854 6.31055 15.5854 6.5123 15.4301L6.16483 14.9913C6.5123 15.4301 6.5123 15.4301 6.5123 15.4301L6.5123 15.4244L6.51791 15.4244L6.52911 15.4133C6.54593 15.4022 6.56274 15.3912 6.57956 15.369C6.62439 15.3357 6.686 15.2856 6.77008 15.219C6.927 15.0858 7.15118 14.8915 7.4202 14.6416C7.95822 14.1475 8.68121 13.4368 9.39856 12.5706C10.8221 10.8716 12.3297 8.47839 12.3297 5.93542C12.3297 2.64294 9.55548 0 6.16483 0C2.77417 0 0 2.64294 0 5.93542C0 8.47839 1.50757 10.8716 2.93109 12.5706C3.64844 13.4368 4.37143 14.1475 4.90945 14.6416C5.17847 14.8915 5.40265 15.0858 5.55957 15.219C5.64365 15.2856 5.70526 15.3357 5.75012 15.369C5.76691 15.3912 5.78372 15.4022 5.80054 15.4133L5.81174 15.4244L5.81735 15.4244L5.81735 15.4301ZM1.12088 5.93542C1.12088 3.28699 3.36264 1.11047 6.16483 1.11047C8.96701 1.11047 11.2088 3.28699 11.2088 5.93542C11.2088 8.07312 9.91415 10.2108 8.53546 11.8654C7.85175 12.6816 7.17361 13.359 6.65802 13.8254C6.46747 14.0031 6.29935 14.153 6.16483 14.2695C6.03033 14.153 5.86218 14.0031 5.67163 13.8254C5.15604 13.359 4.47791 12.6816 3.79419 11.8654C2.4155 10.2108 1.12088 8.07312 1.12088 5.93542Z" fill="#000000" fill-opacity="1.000000" fill-rule="evenodd"/>
</svg>
