<svg width="20.000000" height="19.968262" viewBox="0 0 20 19.9683" fill="none" xmlns="http://www.w3.org/2000/svg" xmlns:xlink="http://www.w3.org/1999/xlink">
	<desc>
			Created with Pixso.
	</desc>
	<defs/>
	<path id="Vector" d="M1.30447 0.32019C1.09052 -0.00793457 0.641144 -0.100586 0.320221 0.120483C-0.00784302 0.334473 -0.100586 0.783813 0.120483 1.10474L1.48279 3.15149L3.54379 10.8823C4.07153 12.8722 5.88297 14.2628 7.94403 14.2628L17.1156 14.2628C17.5078 14.2628 17.8288 13.9419 17.8288 13.5497C17.8288 13.1573 17.5078 12.8364 17.1156 12.8364L7.94403 12.8364C6.82434 12.8364 5.8118 12.2374 5.25552 11.3103L17.3082 10.0836C18.2424 9.99084 18.9983 9.30627 19.1909 8.39343L19.954 4.71338C20.2322 3.38684 19.2124 2.13879 17.8573 2.13879L2.52399 2.13879L1.30447 0.32019ZM4.76331 9.92676L3.06601 3.56519L17.8573 3.56519C18.3138 3.56519 18.649 3.97876 18.5562 4.4209L17.7931 8.10095C17.7289 8.40759 17.4794 8.63586 17.1656 8.66443L4.76331 9.92676Z" fill="#000000" fill-opacity="1.000000" fill-rule="evenodd"/>
	<path id="Vector" d="M4.27832 17.8286C4.27832 16.6448 5.23398 15.6891 6.41785 15.6891C7.60175 15.6891 8.5574 16.6448 8.5574 17.8286C8.5574 19.0125 7.60175 19.9681 6.41785 19.9681C5.23398 19.9681 4.27832 19.0125 4.27832 17.8286ZM6.41785 17.1155C6.0256 17.1155 5.70468 17.4364 5.70468 17.8286C5.70468 18.2208 6.0256 18.5417 6.41785 18.5417C6.81012 18.5417 7.13104 18.2208 7.13104 17.8286C7.13104 17.4364 6.81012 17.1155 6.41785 17.1155Z" fill="#000000" fill-opacity="1.000000" fill-rule="evenodd"/>
	<path id="Vector" d="M13.5497 17.8286C13.5497 16.6448 14.5053 15.6891 15.6892 15.6891C16.8731 15.6891 17.8288 16.6448 17.8288 17.8286C17.8288 19.0125 16.8731 19.9681 15.6892 19.9681C14.5053 19.9681 13.5497 19.0125 13.5497 17.8286ZM15.6892 17.1155C15.297 17.1155 14.976 17.4364 14.976 17.8286C14.976 18.2208 15.297 18.5417 15.6892 18.5417C16.0815 18.5417 16.4024 18.2208 16.4024 17.8286C16.4024 17.4364 16.0815 17.1155 15.6892 17.1155Z" fill="#000000" fill-opacity="1.000000" fill-rule="evenodd"/>
</svg>
