<svg width="130.000000" height="36.000000" viewBox="0 0 130 36" fill="none" xmlns="http://www.w3.org/2000/svg" xmlns:xlink="http://www.w3.org/1999/xlink">
	<desc>
			Created with Pixso.
	</desc>
	<defs/>
	<path id="ЛОГО" d="M64.9828 27.5818C66.3187 24.8898 66.9866 21.6958 66.9866 18C66.9866 14.3042 66.3187 11.1102 64.9828 8.41821Q63.3911 5.21033 60.8589 3.16858L60.8588 3.16846Q60.2037 2.64026 59.4856 2.19006Q58.6845 1.68787 57.8312 1.3009L57.831 1.30078L57.8307 1.30066L57.8306 1.30066Q54.9628 0 51.5051 0Q48.0474 0 45.1795 1.30066L45.1794 1.30066L45.1791 1.30078L45.179 1.3009Q44.3257 1.68787 43.5246 2.19006C41.1955 3.65015 39.363 5.7262 38.0273 8.41821C36.6915 11.1102 36.0236 14.3042 36.0236 18C36.0236 21.6958 36.6915 24.8898 38.0273 27.5818C39.363 30.2738 41.1955 32.3499 43.5246 33.8099Q44.3257 34.3121 45.1791 34.6992L45.1794 34.6993Q48.0473 36 51.5051 36Q54.9628 36 57.8306 34.6993L57.8307 34.6993L57.8311 34.6992Q58.6844 34.3121 59.4856 33.8099Q60.2036 33.3597 60.8588 32.8315Q63.391 30.7898 64.9828 27.5818ZM127.996 27.5818C129.332 24.8898 130 21.6958 130 18C130 14.3042 129.332 11.1102 127.996 8.41821C126.661 5.7262 124.828 3.65015 122.499 2.19006C120.17 0.72998 117.51 0 114.519 0C111.527 0 108.867 0.72998 106.538 2.19006C104.209 3.65015 102.376 5.7262 101.041 8.41821C99.7049 11.1102 99.037 14.3042 99.037 18C99.037 21.6958 99.7049 24.8898 101.041 27.5818C102.376 30.2738 104.209 32.3499 106.538 33.8099C108.867 35.27 111.527 36 114.519 36C117.51 36 120.17 35.27 122.499 33.8099C124.828 32.3499 126.661 30.2738 127.996 27.5818ZM0 31.6198L0 35.5209L1.30151 35.5209Q4.96313 35.5209 6.9693 33.6985L6.96979 33.6981L6.97107 33.6969Q7.08453 33.5938 7.19275 33.4847Q9.21356 31.4487 10.0184 27.5818Q10.8234 23.7148 11.0289 18.2053L11.5768 4.24329L24.6608 4.24329L24.6608 35.5209L28.9079 35.5209L28.9079 0.479126L7.53522 0.479126L6.9187 17.384Q6.73035 22.5513 6.18231 25.6825Q5.65143 28.8137 4.43549 30.2167C3.62488 31.1521 2.48889 31.6198 1.02753 31.6198L0 31.6198ZM95.2951 0.479126L95.2951 4.24329L78.3751 4.24329L78.3751 35.5209L74.1279 35.5209L74.1279 0.479126L95.2951 0.479126ZM61.3522 10.3175C62.3684 12.4049 62.8765 14.9658 62.8765 18C62.8765 21.0342 62.3684 23.5951 61.3522 25.6825C60.3475 27.77 58.9832 29.3499 57.2593 30.422C55.5467 31.4943 53.6287 32.0304 51.5051 32.0304C49.3815 32.0304 47.4578 31.4943 45.7338 30.422Q45.5573 30.3115 45.3857 30.1938Q43.0602 28.5985 41.6407 25.6825C40.636 23.5951 40.1337 21.0342 40.1337 18C40.1337 14.9658 40.636 12.4049 41.6407 10.3175Q43.0602 7.40149 45.3857 5.80615Q45.5573 5.68848 45.7338 5.578C47.4578 4.50574 49.3815 3.9696 51.5051 3.9696C53.6287 3.9696 55.5467 4.50574 57.2593 5.578C58.9832 6.65015 60.3475 8.22998 61.3522 10.3175ZM124.366 10.3175C125.382 12.4049 125.89 14.9658 125.89 18C125.89 21.0342 125.382 23.5951 124.366 25.6825C123.361 27.77 121.997 29.3499 120.273 30.422C118.56 31.4943 116.642 32.0304 114.519 32.0304C112.395 32.0304 110.471 31.4943 108.747 30.422C107.035 29.3499 105.67 27.77 104.654 25.6825C103.65 23.5951 103.147 21.0342 103.147 18C103.147 14.9658 103.65 12.4049 104.654 10.3175C105.67 8.22998 107.035 6.65015 108.747 5.578C110.471 4.50574 112.395 3.9696 114.519 3.9696C116.642 3.9696 118.56 4.50574 120.273 5.578C121.997 6.65015 123.361 8.22998 124.366 10.3175Z" fill="#6CB71D" fill-opacity="1.000000" fill-rule="evenodd"/>
</svg>
